<svg fill="none" height="38" viewBox="0 0 146 38" width="146" xmlns="http://www.w3.org/2000/svg">
    <g fill="#245a70">
        <path
            d="m42.4679 37.9249h-3.4747v-8.5475h3.333c1.5895 0 2.5876.8994 2.5876 2.3397.0088.3822-.0962.7584-.3016 1.0811s-.5021.5775-.8525.7321c.3945.1556.7306.43.9614.7851s.3448.7732.3262 1.196c.0082 1.5735-1.0638 2.4135-2.5794 2.4135zm-.2403-7.3756h-1.9263v2.4585h1.9263c.8215 0 1.3945-.4322 1.3945-1.2292s-.5648-1.2375-1.3945-1.2375zm.1192 3.6141h-2.0537v2.6039h2.0537c.9036 0 1.4088-.5511 1.4088-1.3071s-.5052-1.305-1.4088-1.305z" />
        <path
            d="m52.0085 37.0852c-.6049.5867-1.4154.9149-2.259.9149-.8437 0-1.6541-.3282-2.2591-.9149-.8419-.8421-.8214-1.7886-.8214-3.4338 0-1.6451-.0123-2.5937.8214-3.4337.605-.5867 1.4154-.915 2.2591-.915.8436 0 1.6541.3283 2.259.915.842.84.8214 1.7886.8214 3.4337 0 1.6452.0206 2.5917-.8214 3.4338zm-.9858-6.0869c-.1675-.1675-.3664-.3003-.5854-.391-.219-.0906-.4538-.1372-.6909-.1372s-.4719.0466-.6909.1372c-.219.0907-.418.2235-.5855.391-.4107.4568-.5052.9363-.5052 2.6634s.0842 2.1962.5052 2.6531c.1675.1675.3665.3003.5855.3909.219.0907.4538.1373.6909.1373s.4719-.0466.6909-.1373c.219-.0906.4179-.2234.5854-.3909.421-.4569.5052-.9363.5052-2.6531 0-1.7169-.0842-2.2066-.5052-2.6634z" />
        <path
            d="m59.783 37.0852c-.6049.5867-1.4153.9149-2.259.9149s-1.6541-.3282-2.259-.9149c-.842-.8421-.8215-1.7886-.8215-3.4338 0-1.6451 0-2.5937.8215-3.4337.6049-.5867 1.4153-.915 2.259-.915s1.6541.3283 2.259.915c.842.84.8215 1.7886.8215 3.4337 0 1.6452.0205 2.5917-.8215 3.4338zm-.9858-6.0869c-.1674-.1675-.3664-.3003-.5854-.391-.219-.0906-.4538-.1372-.6909-.1372s-.4719.0466-.6909.1372c-.219.0907-.4179.2235-.5854.391-.4108.4568-.5052.9363-.5052 2.6634s.0842 2.1962.5052 2.6531c.1675.1675.3664.3003.5854.3909.219.0907.4538.1373.6909.1373s.4719-.0466.6909-.1373c.219-.0906.418-.2234.5854-.3909.4108-.4569.5052-.9363.5052-2.6531 0-1.7169-.0842-2.2066-.5052-2.6634z" />
        <path
            d="m67.6782 37.9249-2.3987-4.2143-1.4375 1.7291v2.4852h-1.2979v-8.5475h1.2979v4.3024l3.4911-4.3024h1.5896l-2.7807 3.3498 3.0805 5.1977z" />
        <path
            d="m78.4229 37.0233c-.6066.6119-1.43.9614-2.2926.9729s-1.6951-.3159-2.3178-.9115c-.842-.842-.8215-1.7885-.8215-3.4337 0-1.6451-.0123-2.5937.8215-3.4337.2941-.2979.6463-.5324 1.0348-.6892.3886-.1568.8052-.2326 1.2242-.2225 1.8174 0 2.8751 1.1882 3.1174 2.6634h-1.3123c-.2054-.9363-.842-1.4895-1.8051-1.4895-.2356-.0028-.4693.0426-.6865.1336-.2173.0909-.4135.2253-.5765.395-.4107.4569-.5175.9363-.5175 2.6634s.0965 2.2086.5175 2.6634c.1637.1679.3603.3004.5776.3892.2173.0889.4506.1321.6854.1271.2623.0062.523-.0442.764-.1479.241-.1036.4568-.2579.6324-.4524.3092-.3783.4639-.8589.4333-1.346v-.4795h-1.8297v-1.1124h3.1297v1.3091c-.0164 1.0941-.2218 1.8009-.7783 2.4012z" />
        <path
            d="m85.8252 37.9249-1.8052-3.6017h-1.6244v3.6017h-1.304v-8.5475h3.3228c1.6244 0 2.6574 1.0449 2.6574 2.4975.0188.5161-.1407 1.023-.4517 1.4359-.3111.4128-.7548.7066-1.257.8321l1.9736 3.782zm-1.5033-7.3756h-1.9263v2.6778h1.9263c.8667 0 1.4561-.4917 1.4561-1.3317s-.5792-1.3543-1.4561-1.3543z" />
        <path
            d="m94.0072 37.0852c-.6049.5867-1.4153.9149-2.259.9149s-1.6541-.3282-2.259-.9149c-.844-.8421-.8317-1.7886-.8317-3.4338 0-1.6451-.0123-2.5937.8317-3.4337.6049-.5867 1.4153-.915 2.259-.915s1.6541.3283 2.259.915c.842.84.8215 1.7886.8215 3.4337 0 1.6452.0226 2.5917-.8215 3.4338zm-.9878-6.0869c-.1672-.1677-.3659-.3007-.5847-.3914-.2189-.0908-.4536-.1375-.6906-.1375s-.4717.0467-.6905.1375c-.2189.0907-.4176.2237-.5848.3914-.421.4568-.5052.9363-.5052 2.6634s.0842 2.1962.5052 2.6531c.1672.1676.3659.3007.5848.3914.2188.0908.4535.1375.6905.1375s.4717-.0467.6906-.1375c.2188-.0907.4175-.2238.5847-.3914.4231-.4569.5052-.9363.5052-2.6531 0-1.7169-.0821-2.2066-.5052-2.6634z" />
        <path
            d="m99.6877 37.9966c-1.7436 0-3.0682-1.1883-3.0682-2.9523v-5.6669h1.3v5.6055c0 1.1411.6982 1.8438 1.7682 1.8438 1.0703 0 1.7803-.7088 1.7803-1.8438v-5.6055h1.3v5.6669c0 1.764-1.335 2.9523-3.0803 2.9523z" />
        <path
            d="m108.122 34.5629h-1.949v3.362h-1.3v-8.5475h3.249c1.674 0 2.744 1.1043 2.744 2.5938 0 1.4894-1.07 2.5917-2.744 2.5917zm-.072-4.0218h-1.877v2.8458h1.877c.904 0 1.516-.5163 1.516-1.4157s-.612-1.4301-1.516-1.4301z" />
        <path
            d="m49.7029 23.9869v-10.17c0-3.0035-1.571-4.58313-4.2387-4.58313s-4.3127 1.63903-4.3127 4.58313v10.17h-2.1583v-23.9869h2.1399v9.42432c1.2075-1.38292 2.8114-2.0754 4.7049-2.0754 3.7396 0 5.9945 2.3827 5.9945 6.11348v10.5307z" />
        <path
            d="m65.334 12.9889c0-2.4872-1.2322-3.78813-4.3887-3.78813-2.1974 0-3.3146.54086-4.3126 1.95863l-1.4951-1.33172c1.4376-1.9115 3.1565-2.48515 5.8385-2.48515 4.3866 0 6.4957 1.93813 6.4957 5.45377v11.1904h-2.1235v-1.6001c-1.3513 1.3481-2.6101 1.8029-4.865 1.8029-2.333 0-3.6966-.4302-4.7481-1.5017-.7742-.8195-1.2321-2.0263-1.2321-3.2985 0-2.9482 2.0946-4.7532 5.7316-4.7532h2.9368v1.6718h-2.6698c-2.6163 0-3.9019 1.0592-3.9019 3.0588s1.2322 2.9748 3.9861 2.9748c1.4376 0 2.7581-.127 3.8486-1.1801.5832-.5572.8707-1.5201.8707-2.9625z" />
        <path
            d="m77.9277 24.1895c-4.2839 0-7.2719-2.9707-7.2719-8.4266 0-5.4558 2.988-8.42037 7.2719-8.42037 2.259 0 3.713.59824 5.436 2.45852l-1.4684 1.37265c-1.3102-1.46076-2.335-1.9504-3.9676-1.9504-1.7004 0-3.1215.69247-4.0436 2.0016-.7948 1.1227-1.0905 2.3869-1.0905 4.5278 0 2.141.2957 3.4133 1.0905 4.5339.9221 1.3092 2.3432 2.0016 4.0436 2.0016 1.6429 0 2.6574-.4875 3.9676-1.9483l1.4684 1.3624c-1.723 1.8828-3.1729 2.4872-5.436 2.4872z" />
        <path
            d="m96.0148 23.9869v-10.17c0-3.0035-1.5711-4.58313-4.2388-4.58313-2.6676 0-4.3126 1.63903-4.3126 4.58313v10.17h-2.1399v-23.9869h2.1358v9.42432c1.2055-1.38292 2.8114-2.0754 4.7049-2.0754 3.7397 0 5.9945 2.3827 5.9945 6.11348v10.5307z" />
        <path
            d="m105.405 14.6344v1.6738h9.112v-.9814c0-4.9293-2.513-7.99013-6.697-7.99013-4.183 0-6.696 3.12443-6.696 8.42043 0 5.6833 2.669 8.4265 7.111 8.4265 2.775 0 4.327-.8584 6.007-2.5343l-1.505-1.262c-1.343 1.3399-2.485 1.9053-4.409 1.9053-2.621 0-4.196-1.3378-4.804-3.7553-.216-.9132-.311-1.8506-.283-2.7884 0-1.9156.08-2.897.56-3.9787.349-.7718.914-1.4268 1.627-1.88631.712-.45948 1.543-.70391 2.391-.70391.849 0 1.68.24443 2.392.70391.713.45951 1.278 1.11451 1.626 1.88631.386.9465.489 1.4505.549 2.858z" />
        <path
            d="m121.725 23.987c-2.721 0-4.107-1.9074-4.107-4.3659v-10.39541h-2.165v-1.60625h2.165v-5.18951h2.138v5.18951h3.097v1.60625h-3.097v10.37901c0 1.5796.737 2.5261 2.351 2.5261h1.121v1.8562z" />
        <path
            d="m130.158 23.987c-2.721 0-4.107-1.9074-4.107-4.3659v-10.39541h-2.165v-1.60625h2.165v-5.18951h2.138v5.18951h3.097v1.60625h-3.097v10.37901c0 1.5796.737 2.5261 2.351 2.5261h1.121v1.8562z" />
        <path
            d="m136.422 14.6344v1.6738h9.114v-.9814c0-4.9293-2.514-7.99013-6.697-7.99013-4.184 0-6.697 3.12443-6.697 8.42043 0 5.6833 2.669 8.4265 7.109 8.4265 2.775 0 4.327-.8584 6.007-2.5343l-1.503-1.262c-1.345 1.3399-2.485 1.9053-4.409 1.9053-2.621 0-4.198-1.3378-4.806-3.7553-.214-.9134-.31-1.8506-.283-2.7884 0-1.9156.08-2.897.563-3.9787.348-.7718.913-1.4268 1.626-1.88631.712-.45948 1.543-.70391 2.392-.70391.848 0 1.679.24443 2.392.70391.712.45951 1.277 1.11451 1.626 1.88631.386.9465.486 1.4505.548 2.858z" />
        <g clip-rule="evenodd" fill-rule="evenodd">
            <path
                d="m30.3752 37.9226v-30.30322h-11.5907v2.19423h9.3913v25.91479h-7.1919v-9.369h-11.59279v2.1942h9.39339v9.369z" />
            <path
                d="m11.5928 16.9884h9.3913v2.1963h-11.5928v-9.37109h-7.19185v25.91479h9.39335v2.1942h-11.5928v-30.30322h11.5928z" />
        </g>
    </g>
</svg>